<?xml version="1.0" encoding="utf-8"?>
<!-- Generator: Adobe Illustrator 25.4.1, SVG Export Plug-In . SVG Version: 6.00 Build 0)  -->
<svg version="1.1" id="Layer_1" xmlns="http://www.w3.org/2000/svg" xmlns:xlink="http://www.w3.org/1999/xlink" x="0px" y="0px"
	 viewBox="0 0 400 600" style="enable-background:new 0 0 400 600;" xml:space="preserve">
<line style="fill:none;stroke:#000000;stroke-width:1.5;stroke-linecap:round;stroke-linejoin:round;stroke-miterlimit:10;" x1="105.5" y1="421.48" x2="291.5" y2="421.48"/>
<g>
	<g>
		<g>
			<g>
				<g>
					<g>
						
							<path style="fill:none;stroke:#000000;stroke-width:1.5;stroke-linecap:round;stroke-linejoin:round;stroke-miterlimit:10;" d="
							M96.53,442.91V415.6c0-3.4,2.76-6.12,6.16-6.12H292c3.4,0,6.5,2.6,6.5,6l-0.06,125H96.53v-34.35"/>
						
							<polygon style="fill:none;stroke:#000000;stroke-width:1.5;stroke-linecap:round;stroke-linejoin:round;stroke-miterlimit:10;" points="
							96.53,540.47 68.5,569.48 326.5,569.48 298.44,540.47 						"/>
						
							<path style="fill:none;stroke:#000000;stroke-width:1.5;stroke-linecap:round;stroke-linejoin:round;stroke-miterlimit:10;" d="
							M326.5,569.48l-0.02,2.46c0,3.08-2.68,5.64-5.76,5.64H74.25c-3.08,0-5.57-2.49-5.57-5.57v-2.09"/>
					</g>
				</g>
			</g>
			<g>
				
					<path style="fill:#EDF2FF;stroke:#000000;stroke-width:1.5;stroke-linecap:round;stroke-linejoin:round;stroke-miterlimit:10;" d="
					M263.45,521.21c0,3.4-2.47,6.16-5.51,6.16H134.95c-3.04,0-5.5-2.76-5.5-6.16v-81.63c0-3.4,2.46-6.16,5.5-6.16h122.34
					c3.4,0,6.16,2.76,6.16,6.16V521.21z"/>
				
					<line style="fill:none;stroke:#000000;stroke-width:1.5;stroke-linecap:round;stroke-linejoin:round;stroke-miterlimit:10;" x1="148.5" y1="519.21" x2="148.5" y2="453.75"/>
				
					<line style="fill:none;stroke:#000000;stroke-width:1.5;stroke-linecap:round;stroke-linejoin:round;stroke-miterlimit:10;" x1="129.7" y1="446.5" x2="263.45" y2="446.5"/>
				
					<line style="fill:none;stroke:#000000;stroke-width:1.5;stroke-linecap:round;stroke-linejoin:round;stroke-miterlimit:10;" x1="184.79" y1="440.59" x2="209.05" y2="440.59"/>
				
					<rect x="144.5" y="438.48" style="fill:none;stroke:#000000;stroke-width:1.5;stroke-linecap:round;stroke-linejoin:round;stroke-miterlimit:10;" width="4" height="4"/>
				
					<rect x="137.5" y="438.48" style="fill:none;stroke:#000000;stroke-width:1.5;stroke-linecap:round;stroke-linejoin:round;stroke-miterlimit:10;" width="4" height="4"/>
			</g>
			<g>
				<g>
					
						<ellipse style="stroke:#000000;stroke-width:1.5;stroke-linecap:round;stroke-linejoin:round;stroke-miterlimit:10;" cx="199.06" cy="498.84" rx="26.57" ry="31.58"/>
					
						<circle style="fill:#B8CBFF;stroke:#000000;stroke-width:1.5;stroke-linecap:round;stroke-linejoin:round;stroke-miterlimit:10;" cx="199.44" cy="491.16" r="30.81"/>
					
						<polyline style="fill:none;stroke:#000000;stroke-width:1.5;stroke-linecap:round;stroke-linejoin:round;stroke-miterlimit:10;" points="
						214.4,479.37 194.94,502.95 184.48,494.33 					"/>
				</g>
			</g>
			<g>
				<g>
					
						<path style="fill:none;stroke:#000000;stroke-width:1.5;stroke-linecap:round;stroke-linejoin:round;stroke-miterlimit:10;" d="
						M83.3,369.94c-10.59-1.27-35.61,6.51-41.67,34.24c-4.36,19.95,14.77,56.76,26.9,70.84c5.69-9.49,21.42-18.51,31.63-20.26
						c-23.27-38.18-21.39-51.47-14.23-51.73"/>
					
						<path style="fill:none;stroke:#000000;stroke-width:1.5;stroke-linecap:round;stroke-linejoin:round;stroke-miterlimit:10;" d="
						M93.2,343.88c-0.7-0.36-1.25-1.01-1.48-1.77s-0.14-1.6,0.24-2.29c0.14-0.26,0.34-0.5,0.6-0.62c0.27-0.12,0.62-0.08,0.81,0.15
						c0.21,0.27,0.09,0.71-0.19,0.91s-0.67,0.2-1,0.09c-0.66-0.22-1.16-0.86-1.21-1.56c-0.05-0.7,0.35-1.4,0.97-1.72"/>
					<g>
						
							<path style="fill:none;stroke:#000000;stroke-width:1.5;stroke-linecap:round;stroke-linejoin:round;stroke-miterlimit:10;" d="
							M104.81,497.64c0.56,2.27-1.38,3.75-3.04,3.83c-3.32,0.14-9.89-6.28-13.7-15.4"/>
						
							<path style="fill:none;stroke:#000000;stroke-width:1.5;stroke-linecap:round;stroke-linejoin:round;stroke-miterlimit:10;" d="
							M97.15,499.62c0.12,2.04-2.07,3.15-4.11,2.62c-1.01-0.26-1.91-0.84-2.75-1.48c-3.17-2.39-6.49-7.91-8.07-11.62"/>
						
							<path style="fill:none;stroke:#000000;stroke-width:1.5;stroke-linecap:round;stroke-linejoin:round;stroke-miterlimit:10;" d="
							M68.51,474.82c2.95,18.07,14.49,26.78,16.76,28.04c3.3,1.82,4.87-0.72,4.79-1.88"/>
					</g>
					
						<path style="fill:none;stroke:#000000;stroke-width:1.5;stroke-linecap:round;stroke-linejoin:round;stroke-miterlimit:10;" d="
						M94.65,480.71c4.89,13.5,12.32,21.12,16,16.77c3.53-4.18-4.25-6.12-9.78-24.07"/>
					
						<path style="fill:none;stroke:#000000;stroke-width:1.5;stroke-linecap:round;stroke-linejoin:round;stroke-miterlimit:10;" d="
						M101.95,476.65c3.18,4.36,11.47,10.32,14.53,5.45c2.87-4.56-5.69-9.01-16.32-27.53"/>
					
						<path style="fill:none;stroke:#000000;stroke-width:1.5;stroke-linecap:round;stroke-linejoin:round;stroke-miterlimit:10;" d="
						M138.66,392.46c-9.27,1.38-25.27,4.15-35.03,12.38c-3.55,2.99-0.09,4.64-0.09,4.64"/>
					
						<path style="fill:none;stroke:#000000;stroke-width:1.5;stroke-linecap:round;stroke-linejoin:round;stroke-miterlimit:10;" d="
						M122.13,401.17c-5.45-0.09-10.92,1.42-15.4,4.23"/>
					<g>
						
							<path style="fill:none;stroke:#000000;stroke-width:1.5;stroke-linecap:round;stroke-linejoin:round;stroke-miterlimit:10;" d="
							M136.71,326.69c2.16,6.58,4.14,12.74,4.93,19.63c0.79,6.88,0.11,14.12-3.16,20.22s-9.45,10.89-16.37,11.34
							c-5.25,0.34-10.49-1.81-14.4-5.34c-3.9-3.52-6.52-8.31-7.98-13.36"/>
						
							<path style="fill:none;stroke:#000000;stroke-width:1.5;stroke-linecap:round;stroke-linejoin:round;stroke-miterlimit:10;" d="
							M82.31,372.9l9.84-23.47c0,0-6.85-1.29-6.85-9.33c0-4.3,8.09-12.23,16.12-4.73c1.57-5.19,5.46-11.26,9.71-12.34
							s8.73-0.14,13.02,0.78c4.29,0.91,8.8,1.79,13.02,0.57c5.97-1.72,10.24-7.7,10.59-13.91s-2.87-12.33-7.78-16.15
							s-11.3-5.44-17.51-5.19c-5.12,0.21-10.41,1.77-13.94,5.47c-7.48,7.84-4.8,22.26-13.18,29.13c-2.14,1.75-4.77,2.77-7.22,4.05
							s-4.88,2.96-6.04,5.47s-0.69,5.59,1.41,6.5"/>
						
							<path style="fill:none;stroke:#000000;stroke-width:1.5;stroke-linecap:round;stroke-linejoin:round;stroke-miterlimit:10;" d="
							M132.39,294.58c3.54,1.1,6.63,3.55,8.51,6.74c1.88,3.19,2.51,7.09,1.75,10.71"/>
						
							<path style="fill:none;stroke:#000000;stroke-width:1.5;stroke-linecap:round;stroke-linejoin:round;stroke-miterlimit:10;" d="
							M114.57,376.72l-5.4,12.51c0,0,0.09-0.17,0.13-0.26"/>
						<path style="stroke:#000000;stroke-width:1.5;stroke-linecap:round;stroke-linejoin:round;stroke-miterlimit:10;" d="
							M114.42,376.91c-5.88-2.52-11.58-7.09-14.62-17.42c1.56,10.17,6.5,20.81,10.5,26.82c0.72-1.55,3.12-6.98,3.99-9.28
							C114.31,376.97,114.33,376.92,114.42,376.91z"/>
						<g>
							<g>
								<g>
									
										<circle style="stroke:#000000;stroke-width:1.5;stroke-linecap:round;stroke-linejoin:round;stroke-miterlimit:10;" cx="123.72" cy="344.93" r="1.06"/>
									
										<ellipse transform="matrix(0.8602 -0.51 0.51 0.8602 -156.3198 108.5484)" style="stroke:#000000;stroke-width:1.5;stroke-linecap:round;stroke-linejoin:round;stroke-miterlimit:10.0002;" cx="119.8" cy="339.36" rx="4.43" ry="1.73"/>
								</g>
								<g>
									
										<circle style="stroke:#000000;stroke-width:1.5;stroke-linecap:round;stroke-linejoin:round;stroke-miterlimit:10;" cx="137.77" cy="342.04" r="1.06"/>
									
										<ellipse transform="matrix(0.2769 -0.9609 0.9609 0.2769 -221.6099 376.8218)" style="stroke:#000000;stroke-width:1.5;stroke-linecap:round;stroke-linejoin:round;stroke-miterlimit:10;" cx="139.57" cy="335.66" rx="1.73" ry="4.43"/>
								</g>
								
									<path style="fill:none;stroke:#000000;stroke-width:1.5;stroke-linecap:round;stroke-linejoin:round;stroke-miterlimit:10;" d="
									M124.31,356.07c-1.26,0.35-2.68,0.11-3.75-0.64s-1.78-2-1.91-3.3"/>
							</g>
							<circle style="fill:#FCDDDC;" cx="109.13" cy="348.8" r="4.14"/>
							
								<path style="fill:none;stroke:#000000;stroke-width:1.5;stroke-linecap:round;stroke-linejoin:round;stroke-miterlimit:10;" d="
								M131.41,338.78c0.75,2.67,1.51,5.35,1.93,8.09c0.14,0.94,0.23,1.98-0.29,2.78c-0.64,0.97-2.16,1.19-3.05,0.45"/>
						</g>
					</g>
					
						<path style="fill:none;stroke:#000000;stroke-width:1.5;stroke-linecap:round;stroke-linejoin:round;stroke-miterlimit:10;" d="
						M83.3,369.94c-10.59-1.27-35.61,6.51-41.67,34.24c-4.36,19.95,14.77,56.76,26.9,70.84c5.69-9.49,21.42-18.51,31.63-20.26
						c-23.27-38.18-21.39-51.47-14.23-51.73"/>
					
						<path style="fill:none;stroke:#000000;stroke-width:1.5;stroke-linecap:round;stroke-linejoin:round;stroke-miterlimit:10;" d="
						M137.4,368.72c20.89-4.67,43.21-2.72,62.97,5.52c6.9,2.87,13.83,6.81,17.52,13.31c3.7,6.5,2.8,16.07-3.6,19.92
						c-3.46,2.08-11.79,2.01-11.79,2.01s-41.95-0.08-63,0c1.88-6.79,1-12.76-1.63-18.72c13.27-4.08,26.98-6.75,40.81-7.94"/>
					
						<path style="fill:none;stroke:#000000;stroke-width:1.5;stroke-linecap:round;stroke-linejoin:round;stroke-miterlimit:10;" d="
						M93.2,343.88c-0.7-0.36-1.25-1.01-1.48-1.77s-0.14-1.6,0.24-2.29c0.14-0.26,0.34-0.5,0.6-0.62c0.27-0.12,0.62-0.08,0.81,0.15
						c0.21,0.27,0.09,0.71-0.19,0.91s-0.67,0.2-1,0.09c-0.66-0.22-1.16-0.86-1.21-1.56c-0.05-0.7,0.35-1.4,0.97-1.72"/>
					<g>
						
							<path style="fill:none;stroke:#000000;stroke-width:1.5;stroke-linecap:round;stroke-linejoin:round;stroke-miterlimit:10;" d="
							M104.81,497.64c0.56,2.27-1.38,3.75-3.04,3.83c-3.32,0.14-9.89-6.28-13.7-15.4"/>
						
							<path style="fill:none;stroke:#000000;stroke-width:1.5;stroke-linecap:round;stroke-linejoin:round;stroke-miterlimit:10;" d="
							M97.15,499.62c0.12,2.04-2.07,3.15-4.11,2.62c-1.01-0.26-1.91-0.84-2.75-1.48c-3.17-2.39-6.49-7.91-8.07-11.62"/>
						
							<path style="fill:none;stroke:#000000;stroke-width:1.5;stroke-linecap:round;stroke-linejoin:round;stroke-miterlimit:10;" d="
							M68.51,474.82c2.95,18.07,14.49,26.78,16.76,28.04c3.3,1.82,4.87-0.72,4.79-1.88"/>
					</g>
					
						<path style="fill:none;stroke:#000000;stroke-width:1.5;stroke-linecap:round;stroke-linejoin:round;stroke-miterlimit:10;" d="
						M94.65,480.71c4.89,13.5,12.32,21.12,16,16.77c3.53-4.18-4.25-6.12-9.78-24.07"/>
					
						<path style="fill:none;stroke:#000000;stroke-width:1.5;stroke-linecap:round;stroke-linejoin:round;stroke-miterlimit:10;" d="
						M101.95,476.65c3.18,4.36,11.47,10.32,14.53,5.45c2.87-4.56-5.69-9.01-16.32-27.53"/>
					
						<path style="fill:none;stroke:#000000;stroke-width:1.5;stroke-linecap:round;stroke-linejoin:round;stroke-miterlimit:10;" d="
						M122.13,401.17c-5.45-0.09-10.92,1.42-15.4,4.23"/>
				</g>
			</g>
			<path style="fill:none;stroke:#000000;stroke-width:1.5;stroke-linecap:round;stroke-linejoin:round;stroke-miterlimit:10;" d="
				M220.02,353.6c9.93-3.75,20.29-2.59,27.23,3.05c4.31,3.5,7.4,9.18,6.18,15.82c-0.29,1.6-0.9,3.33-2.16,4.51
				c-1.25,1.18-3.25,1.45-3.87,0.2c-0.86-1.73,1.35-4.22,3.34-5.34c5.29-3,11.38-2.96,15.25,0.1"/>
			<path style="fill:none;stroke:#000000;stroke-width:1.5;stroke-linecap:round;stroke-linejoin:round;stroke-miterlimit:10;" d="
				M174.9,289.58c-10.89-3.98-19.73-13.2-23.24-24.25c-2.18-6.86-2.17-14.95,2.23-20.65c1.06-1.37,2.47-2.63,4.2-2.84
				c1.72-0.21,3.68,1.08,3.62,2.81c-0.08,2.39-3.32,3.17-5.68,2.75c-6.3-1.12-11.81-5.89-13.81-11.97"/>
		</g>
	</g>
	<path style="fill:#B8CBFF;stroke:#000000;stroke-width:1.5;stroke-miterlimit:10;" d="M212.97,305.03
		c-1.79-0.15-2.86-2.46-1.74-3.74c6.62-7.58,20.19-26.72-2.78-35.03c-20.89-7.56-28.95-41.23-22.81-59.41
		c5.61-16.62,19.02-29.45,34.67-36.77c20-9.36,44.62-10.11,65.07,0.35c37.99,19.44,51.1,75.52,14.21,106.64
		C264.79,306.44,226.17,306.16,212.97,305.03z"/>
	<g>
		
			<path style="fill:#B8CBFF;stroke:#000000;stroke-width:1.5;stroke-linecap:round;stroke-linejoin:round;stroke-miterlimit:10;" d="
			M224.98,244.84l4.81,9.11c0.39,0.74,1.44,0.76,1.86,0.04c1.78-3.08,3.5-6.09,5.38-9.15"/>
		
			<path style="fill:#B8CBFF;stroke:#000000;stroke-width:1.5;stroke-linecap:round;stroke-linejoin:round;stroke-miterlimit:10;" d="
			M224.8,244.48h-18.3c-2.34,0-3.99-1.89-3.99-4.23v-29.63c0-2.34,1.89-4.23,4.23-4.23h48.6c2.34,0,4.23,1.89,4.23,4.23v29.63
			c0,2.34-1.89,4.23-4.23,4.23h-18.17"/>
		
			<line style="fill:none;stroke:#000000;stroke-width:1.5;stroke-linecap:round;stroke-linejoin:round;stroke-miterlimit:10;" x1="213.96" y1="225.47" x2="248.24" y2="225.47"/>
		
			<line style="fill:none;stroke:#000000;stroke-width:1.5;stroke-linecap:round;stroke-linejoin:round;stroke-miterlimit:10;" x1="213.96" y1="218.47" x2="229.96" y2="218.47"/>
		
			<line style="fill:none;stroke:#000000;stroke-width:1.5;stroke-linecap:round;stroke-linejoin:round;stroke-miterlimit:10;" x1="213.96" y1="232.47" x2="248.24" y2="232.47"/>
	</g>
	<g>
		
			<line style="fill:none;stroke:#000000;stroke-width:1.5;stroke-linecap:round;stroke-linejoin:round;stroke-miterlimit:10;" x1="304" y1="210.48" x2="331.2" y2="210.52"/>
		<path style="fill:none;stroke:#000000;stroke-width:1.5;stroke-linecap:round;stroke-linejoin:round;stroke-miterlimit:10;" d="
			M303.5,223.99v-19.03c0-1.92,1.51-3.48,3.38-3.48h21.23c1.87,0,3.38,1.55,3.38,3.48V224c0,1.92-1.51,3.48-3.38,3.48h-21.23
			C305.01,227.47,303.5,225.92,303.5,223.99z"/>
	</g>
	<g>
		<g>
			
				<path style="fill:#EDF2FF;stroke:#000000;stroke-width:1.5;stroke-linecap:round;stroke-linejoin:round;stroke-miterlimit:10;" d="
				M258.67,272.71v-0.56c0-6.47,5.24-11.72,11.72-11.72h58.44c6.47,0,11.72,5.24,11.72,11.72v0.56c0,6.47-5.24,11.72-11.72,11.72
				h-58.44C263.91,284.43,258.67,279.18,258.67,272.71z"/>
			
				<polyline style="fill:#EDF2FF;stroke:#000000;stroke-width:1.5;stroke-linecap:round;stroke-linejoin:round;stroke-miterlimit:10;" points="
				274.08,277.39 268.05,272.43 274.08,267.46 			"/>
			
				<polyline style="fill:#EDF2FF;stroke:#000000;stroke-width:1.5;stroke-linecap:round;stroke-linejoin:round;stroke-miterlimit:10;" points="
				325.36,277.39 331.4,272.43 325.36,267.46 			"/>
		</g>
		
			<path style="fill:#EDF2FF;stroke:#000000;stroke-width:1.5;stroke-linecap:round;stroke-linejoin:round;stroke-miterlimit:10;" d="
			M284.61,275.3c1.76-2.08,3.59-4.22,6-5.49c2.42-1.27,5.6-1.47,7.73,0.23c1.56,1.25,2.31,3.28,3.84,4.57
			c1.81,1.54,4.49,1.76,6.74,1s4.13-2.35,5.7-4.14"/>
	</g>
	<g>
		<g>
			
				<path style="fill:#FFFFFF;stroke:#000000;stroke-width:1.5;stroke-linecap:round;stroke-linejoin:round;stroke-miterlimit:10;" d="
				M196.5,183.32v-23.68c0-0.09,0.07-0.16,0.16-0.16h39.68c0.09,0,0.16,0.07,0.16,0.16v23.68c0,0.09-0.07,0.16-0.16,0.16h-39.68
				C196.57,183.48,196.5,183.41,196.5,183.32z"/>
			
				<polyline style="fill:#FFFFFF;stroke:#000000;stroke-width:1.5;stroke-linecap:round;stroke-linejoin:round;stroke-miterlimit:10;" points="
				213.79,176.39 207.66,171.48 213.79,166.57 			"/>
			
				<polyline style="fill:#FFFFFF;stroke:#000000;stroke-width:1.5;stroke-linecap:round;stroke-linejoin:round;stroke-miterlimit:10;" points="
				219.01,176.39 225.14,171.48 219.01,166.57 			"/>
		</g>
	</g>
	
		<circle style="fill:none;stroke:#000000;stroke-width:1.5;stroke-linecap:round;stroke-linejoin:round;stroke-miterlimit:10;" cx="316.5" cy="158.48" r="2"/>
	
		<circle style="fill:none;stroke:#000000;stroke-width:1.5;stroke-linecap:round;stroke-linejoin:round;stroke-miterlimit:10;" cx="232.92" cy="31.96" r="3.95"/>
	<g>
		
			<circle style="fill:#FFFFFF;stroke:#000000;stroke-width:1.5;stroke-linecap:round;stroke-miterlimit:10;" cx="259.56" cy="210.82" r="13.48"/>
		
			<line style="fill:none;stroke:#000000;stroke-width:1.5;stroke-linecap:round;stroke-miterlimit:10;" x1="259.5" y1="204.54" x2="259.5" y2="212.43"/>
		
			<line style="fill:none;stroke:#000000;stroke-width:1.5;stroke-linecap:round;stroke-miterlimit:10;" x1="259.65" y1="215.66" x2="259.65" y2="217.2"/>
	</g>
	<g>
		<g>
			
				<line style="fill:none;stroke:#000000;stroke-width:1.5;stroke-linecap:round;stroke-linejoin:round;stroke-miterlimit:10;" x1="288.03" y1="58.54" x2="220.74" y2="58.54"/>
			
				<line style="fill:none;stroke:#000000;stroke-width:1.5;stroke-linecap:round;stroke-linejoin:round;stroke-miterlimit:10;" x1="288.16" y1="54.29" x2="263.8" y2="54.29"/>
			<path style="fill:#B8CBFF;" d="M259.65,77.89c0-6.2,3.43-9.94,9.34-9.94s2.35,0.97,9.51,5.59c8.45,5.45-1.88,15.22-7.8,15.22
				S259.65,84.09,259.65,77.89z"/>
			<g>
				<path style="fill:none;stroke:#000000;stroke-width:1.5;stroke-linecap:round;stroke-linejoin:round;stroke-miterlimit:10;" d="
					M214.5,107.11V49.86c0-0.21,0.17-0.37,0.37-0.37h79.26c0.21,0,0.37,0.17,0.37,0.37v57.25c0,0.21-0.17,0.37-0.37,0.37h-79.26
					C214.67,107.48,214.5,107.31,214.5,107.11z"/>
			</g>
			
				<rect x="227.5" y="88.48" style="fill:none;stroke:#000000;stroke-width:1.5;stroke-linecap:round;stroke-linejoin:round;stroke-miterlimit:10;" width="16" height="5"/>
		</g>
		<path style="fill:none;stroke:#000000;stroke-width:1.5;stroke-linecap:round;stroke-linejoin:round;stroke-miterlimit:10;" d="
			M227.2,82.26c0.78-2.3,1.63-4.7,3.44-6.33c1.8-1.63,4.87-2.13,6.59-0.41c1.31,1.32,1.48,3.49,2.84,4.75
			c2.03,1.87,5.33,0.7,7.57-0.9c2.24-1.6,4.6-3.67,7.34-3.35c3.47,0.42,5.5,4.49,8.9,5.27"/>
	</g>
	
		<rect x="335.5" y="131.48" style="fill:none;stroke:#000000;stroke-width:1.5;stroke-linecap:round;stroke-linejoin:round;stroke-miterlimit:10;" width="8" height="8"/>
	
		<rect x="277.08" y="186.76" transform="matrix(0.6782 -0.7349 0.7349 0.6782 -49.4314 267.1851)" style="fill:none;stroke:#000000;stroke-width:1.5;stroke-linecap:round;stroke-linejoin:round;stroke-miterlimit:10.0002;" width="6.55" height="6.55"/>
	
		<circle style="fill:none;stroke:#000000;stroke-width:1.5;stroke-linecap:round;stroke-linejoin:round;stroke-miterlimit:10;" cx="188.16" cy="100.99" r="2.86"/>
</g>
<circle style="fill:none;stroke:#000000;stroke-width:1.5;stroke-miterlimit:10;" cx="197.5" cy="415.48" r="1.5"/>
</svg>
